<svg width="97" height="28" viewBox="0 0 97 28" fill="none" xmlns="http://www.w3.org/2000/svg">
<circle cx="68.0337" cy="15" r="4" fill="#454545"/>
<circle cx="47.4336" cy="15" r="4" fill="#454545"/>
<path d="M92.434 0H96.034V18.6C96.034 23.7915 91.8255 28 86.634 28V28C83.7273 28 81.3673 27.08 79.554 25.24C77.7406 23.3733 76.834 21.0267 76.834 18.2C76.834 15.4267 77.7673 13.1067 79.634 11.24C81.5273 9.34667 83.7673 8.4 86.354 8.4C88.0073 8.4 89.554 8.8 90.994 9.6V13.2C89.6606 12.24 88.114 11.76 86.354 11.76C84.754 11.76 83.394 12.36 82.274 13.56C81.1806 14.7333 80.634 16.28 80.634 18.2C80.634 20.1467 81.154 21.7067 82.194 22.88C83.2607 24.0533 84.7406 24.64 86.634 24.64V24.64C89.8372 24.64 92.434 22.0433 92.434 18.84V0Z" fill="#454545"/>
<path d="M59.0339 10.92C60.9006 8.97333 63.2339 8 66.0339 8C67.3939 8 68.6606 8.26667 69.8339 8.8C71.0339 9.30667 72.0739 10.0133 72.9539 10.92C73.8606 11.8267 74.5672 12.8933 75.0739 14.12C75.5806 15.32 75.8339 16.6133 75.8339 18C75.8339 19.3867 75.5806 20.6933 75.0739 21.92C74.5939 23.12 73.9139 24.1733 73.0339 25.08C72.1539 25.9867 71.1139 26.7067 69.9139 27.24C68.7139 27.7467 67.4206 28 66.0339 28C64.6206 28 63.3139 27.7467 62.1139 27.24C60.9406 26.7067 59.9139 25.9867 59.0339 25.08C58.1539 24.1733 57.4606 23.12 56.9539 21.92C56.4739 20.6933 56.2339 19.3867 56.2339 18C56.2339 15.1733 57.1672 12.8133 59.0339 10.92ZM66.0339 11.36C64.1672 11.36 62.6606 11.9733 61.5139 13.2C60.3939 14.4267 59.8339 16.0267 59.8339 18C59.8339 19.9733 60.3939 21.5733 61.5139 22.8C62.6606 24.0267 64.1672 24.64 66.0339 24.64C67.9272 24.64 69.4339 24.0267 70.5539 22.8C71.6739 21.5467 72.2339 19.9467 72.2339 18C72.2339 16.0533 71.6739 14.4667 70.5539 13.24C69.4339 11.9867 67.9272 11.36 66.0339 11.36Z" fill="#454545"/>
<path d="M38.4338 10.92C40.3005 8.97333 42.6338 8 45.4338 8C46.7938 8 48.0605 8.26667 49.2338 8.8C50.4338 9.30667 51.4738 10.0133 52.3538 10.92C53.2605 11.8267 53.9671 12.8933 54.4738 14.12C54.9805 15.32 55.2338 16.6133 55.2338 18C55.2338 19.3867 54.9805 20.6933 54.4738 21.92C53.9938 23.12 53.3138 24.1733 52.4338 25.08C51.5538 25.9867 50.5138 26.7067 49.3138 27.24C48.1138 27.7467 46.8205 28 45.4338 28C44.0205 28 42.7138 27.7467 41.5138 27.24C40.3405 26.7067 39.3138 25.9867 38.4338 25.08C37.5538 24.1733 36.8605 23.12 36.3538 21.92C35.8738 20.6933 35.6338 19.3867 35.6338 18C35.6338 15.1733 36.5671 12.8133 38.4338 10.92ZM45.4338 11.36C43.5671 11.36 42.0605 11.9733 40.9138 13.2C39.7938 14.4267 39.2338 16.0267 39.2338 18C39.2338 19.9733 39.7938 21.5733 40.9138 22.8C42.0605 24.0267 43.5671 24.64 45.4338 24.64C47.3271 24.64 48.8338 24.0267 49.9538 22.8C51.0738 21.5467 51.6338 19.9467 51.6338 18C51.6338 16.0533 51.0738 14.4667 49.9538 13.24C48.8338 11.9867 47.3271 11.36 45.4338 11.36Z" fill="#454545"/>
<path fill-rule="evenodd" clip-rule="evenodd" d="M9.53076 8.09326C4.28406 8.09326 0.0307617 12.3466 0.0307617 17.5933V28H4.03076V17.5933C4.03076 14.5557 6.4932 12.0933 9.53076 12.0933C12.5683 12.0933 15.0308 14.5557 15.0308 17.5933V28H19.0308V17.5933C19.0308 14.5557 21.4932 12.0933 24.5308 12.0933C27.5683 12.0933 30.0308 14.5557 30.0308 17.5933V28H34.0308V17.5933C34.0308 12.3466 29.7775 8.09326 24.5308 8.09326C21.4822 8.09326 18.7691 9.5292 17.0308 11.7616C15.2925 9.5292 12.5793 8.09326 9.53076 8.09326Z" fill="#454545"/>
</svg>
