<svg width="97" height="29" viewBox="0 0 97 29" fill="none" xmlns="http://www.w3.org/2000/svg">
<circle cx="68.0337" cy="15.5" r="4" fill="#4793AF"/>
<circle cx="47.4336" cy="15.5" r="4" fill="#4793AF"/>
<path d="M92.434 0.5H96.034V19.1C96.034 24.2915 91.8255 28.5 86.634 28.5V28.5C83.7273 28.5 81.3673 27.58 79.554 25.74C77.7406 23.8733 76.834 21.5267 76.834 18.7C76.834 15.9267 77.7673 13.6067 79.634 11.74C81.5273 9.84667 83.7673 8.9 86.354 8.9C88.0073 8.9 89.554 9.3 90.994 10.1V13.7C89.6606 12.74 88.114 12.26 86.354 12.26C84.754 12.26 83.394 12.86 82.274 14.06C81.1806 15.2333 80.634 16.78 80.634 18.7C80.634 20.6467 81.154 22.2067 82.194 23.38C83.2607 24.5533 84.7406 25.14 86.634 25.14V25.14C89.8372 25.14 92.434 22.5433 92.434 19.34V0.5Z" fill="#FFC470"/>
<path d="M59.0339 11.42C60.9006 9.47333 63.2339 8.5 66.0339 8.5C67.3939 8.5 68.6606 8.76667 69.8339 9.3C71.0339 9.80667 72.0739 10.5133 72.9539 11.42C73.8606 12.3267 74.5672 13.3933 75.0739 14.62C75.5806 15.82 75.8339 17.1133 75.8339 18.5C75.8339 19.8867 75.5806 21.1933 75.0739 22.42C74.5939 23.62 73.9139 24.6733 73.0339 25.58C72.1539 26.4867 71.1139 27.2067 69.9139 27.74C68.7139 28.2467 67.4206 28.5 66.0339 28.5C64.6206 28.5 63.3139 28.2467 62.1139 27.74C60.9406 27.2067 59.9139 26.4867 59.0339 25.58C58.1539 24.6733 57.4606 23.62 56.9539 22.42C56.4739 21.1933 56.2339 19.8867 56.2339 18.5C56.2339 15.6733 57.1672 13.3133 59.0339 11.42ZM66.0339 11.86C64.1672 11.86 62.6606 12.4733 61.5139 13.7C60.3939 14.9267 59.8339 16.5267 59.8339 18.5C59.8339 20.4733 60.3939 22.0733 61.5139 23.3C62.6606 24.5267 64.1672 25.14 66.0339 25.14C67.9272 25.14 69.4339 24.5267 70.5539 23.3C71.6739 22.0467 72.2339 20.4467 72.2339 18.5C72.2339 16.5533 71.6739 14.9667 70.5539 13.74C69.4339 12.4867 67.9272 11.86 66.0339 11.86Z" fill="#FFC470"/>
<path d="M38.4338 11.42C40.3005 9.47333 42.6338 8.5 45.4338 8.5C46.7938 8.5 48.0605 8.76667 49.2338 9.3C50.4338 9.80667 51.4738 10.5133 52.3538 11.42C53.2605 12.3267 53.9671 13.3933 54.4738 14.62C54.9805 15.82 55.2338 17.1133 55.2338 18.5C55.2338 19.8867 54.9805 21.1933 54.4738 22.42C53.9938 23.62 53.3138 24.6733 52.4338 25.58C51.5538 26.4867 50.5138 27.2067 49.3138 27.74C48.1138 28.2467 46.8205 28.5 45.4338 28.5C44.0205 28.5 42.7138 28.2467 41.5138 27.74C40.3405 27.2067 39.3138 26.4867 38.4338 25.58C37.5538 24.6733 36.8605 23.62 36.3538 22.42C35.8738 21.1933 35.6338 19.8867 35.6338 18.5C35.6338 15.6733 36.5671 13.3133 38.4338 11.42ZM45.4338 11.86C43.5671 11.86 42.0605 12.4733 40.9138 13.7C39.7938 14.9267 39.2338 16.5267 39.2338 18.5C39.2338 20.4733 39.7938 22.0733 40.9138 23.3C42.0605 24.5267 43.5671 25.14 45.4338 25.14C47.3271 25.14 48.8338 24.5267 49.9538 23.3C51.0738 22.0467 51.6338 20.4467 51.6338 18.5C51.6338 16.5533 51.0738 14.9667 49.9538 13.74C48.8338 12.4867 47.3271 11.86 45.4338 11.86Z" fill="#FFC470"/>
<path fill-rule="evenodd" clip-rule="evenodd" d="M9.53076 8.59326C4.28406 8.59326 0.0307617 12.8466 0.0307617 18.0933V28.5H4.03076V18.0933C4.03076 15.0557 6.4932 12.5933 9.53076 12.5933C12.5683 12.5933 15.0308 15.0557 15.0308 18.0933V28.5H19.0308V18.0933C19.0308 15.0557 21.4932 12.5933 24.5308 12.5933C27.5683 12.5933 30.0308 15.0557 30.0308 18.0933V28.5H34.0308V18.0933C34.0308 12.8466 29.7775 8.59326 24.5308 8.59326C21.4822 8.59326 18.7691 10.0292 17.0308 12.2616C15.2925 10.0292 12.5793 8.59326 9.53076 8.59326Z" fill="#FFC470"/>
</svg>
